<?xml version="1.0" encoding="utf-8" ?>
<svg baseProfile="full" height="200mm" version="1.1" viewBox="0,0,200,200" width="200mm" xmlns="http://www.w3.org/2000/svg" xmlns:ev="http://www.w3.org/2001/xml-events" xmlns:xlink="http://www.w3.org/1999/xlink"><defs /><rect fill="#1a1a1a" height="200" width="200" x="0" y="0" /><text alignment-baseline="middle" fill="#e1ed5e" style="dominant-baseline: central; font-size:9.0px; font-family:Arial;" text-anchor="middle" x="100.0" y="100.0">2025</text><line stroke="#e1ed5e" stroke-width="0.3" x1="100.0" x2="100.0" y1="15.0" y2="10.0" /><path d="M 100.0 14.0 a86.0,86.0 0 0,1 42.46469731375804,11.215312516191453" fill="none" id="id25" stroke="none" /><text fill="#e1ed5e" style="font-size:6.75px; font-family:Arial;" text-anchor="middle"><textPath startOffset="22.20632615414155" xlink:href="#id25">January</textPath></text><line stroke="#e1ed5e" stroke-width="0.3" x1="143.23703022742887" x2="145.7803849466894" y1="26.81831364943548" y2="22.513508569990506" /><path d="M 143.74570117128098 25.957352633546492 a86.0,86.0 0 0,1 28.547481713284135,27.462654790039103" fill="none" id="id26" stroke="none" /><text fill="#e1ed5e" style="font-size:6.75px; font-family:Arial;" text-anchor="middle"><textPath startOffset="19.985693538727396" xlink:href="#id26">February</textPath></text><path d="M 117.45458315368197 88.32363383020206 l 3.069963008229648 -2.053673347350161 a24.693541266794625,24.693541266794625 0 0,0 0.23329912725047536,0.355330576535581 l -3.104858770838048 2.000524706836906" fill="#ff1302" stroke="none" /><path d="M 117.65298651832404 88.62581576622439 l 7.25199764059509 -4.672612033177132 a29.626979366602686,29.626979366602686 0 0,0 0.27252927715324354,0.4310758684089585 l -7.331354513994289 4.547088517053968" fill="#ff5b08" stroke="none" /><line stroke="#e1ed5e" stroke-width="0.3" x1="172.23445277983987" x2="176.4835382374775" y1="55.19839476539836" y2="52.563006222186495" /><path d="M 173.08426987136738 54.67131705675599 a86.0,86.0 0 0,1 12.851231095245387,41.99856678651699" fill="none" id="id27" stroke="none" /><text fill="#e1ed5e" style="font-size:6.75px; font-family:Arial;" text-anchor="middle"><textPath startOffset="22.20632615414155" xlink:href="#id27">March</textPath></text><path d="M 118.56541770881063 90.18545643968196 l 9.307251909005974 -4.920246380691016 a31.527761516314776,31.527761516314776 0 0,0 0.249505550361382,0.4819653072765522 l -9.390566892527472 4.759308351154119" fill="#ff750a" stroke="none" /><path d="M 118.89224826269711 90.83032412892265 l 2.149763797032627 -1.0434246334295978 a23.38960652591171,23.38960652591171 0 0,0 0.17268413529085702,0.36371682886761814 l -2.16740612616524 1.0062653889214392" fill="#ff0000" stroke="none" /><path d="M 119.97218684219823 93.5106431181261 l 10.771707632418304 -3.499939971835034 a32.32604366602687,32.32604366602687 0 0,0 0.1673942847690445,0.5306856273311938 l -10.830357400955554 3.3140041780774214" fill="#ff800b" stroke="none" /><path d="M 120.6074358757038 95.95851677861258 l 14.16800770074359 -2.778597286358779 a35.437903071017274,35.437903071017274 0 0,0 0.1122441175676804,0.5996125642804385 l -14.21373754222113 2.5343066446157776" fill="#ffaa0f" stroke="none" /><path d="M 120.91429891909075 98.10471618934814 l 10.383638308114312 -0.9409802191872444 a31.42618761996161,31.42618761996161 0 0,0 0.04418449576498906,0.5391627635566515 l -10.398297287698796 0.7621035384228242" fill="#ff740a" stroke="none" /><line stroke="#e1ed5e" stroke-width="0.3" x1="184.98032266829074" x2="189.97916517819016" y1="98.17113171792111" y2="98.06355123074" /><path d="M 185.9800911702706 98.14961562048488 a86.0,86.0 0 0,1 -9.607161424134198,41.387399972396054" fill="none" id="id28" stroke="none" /><text fill="#e1ed5e" style="font-size:6.75px; font-family:Arial;" text-anchor="middle"><textPath startOffset="21.466115282336823" xlink:href="#id28">April</textPath></text><path d="M 120.64145759157962 103.86396538481128 l 15.057814551565642 2.818738644788926 a36.319369001919384,36.319369001919384 0 0,0 -0.12032099694024373,0.6135141711897569 l -15.007063621649735 -3.077516543046628" fill="#ffb610" stroke="none" /><path d="M 120.13307415673323 105.97154293290107 l 24.38135568027097 7.231598665640321 a46.43121161228407,46.43121161228407 0 0,0 -0.2338656718420008,0.7642865469568723 l -24.253263235922837 -7.65021218514925" fill="#caff1d" stroke="none" /><path d="M 119.54520255179757 107.68017299344265 l 19.517582291953495 7.669319773929361 a41.970323896353165,41.970323896353165 0 0,0 -0.2700038589127525,0.6701274349661469 l -19.38267581878335 -8.004146576738322" fill="#fffe18" stroke="none" /><path d="M 119.41010516605496 108.01547362559984 l 9.686285134894273 3.999986726736777 a31.479695297504797,31.479695297504797 0 0,0 -0.2111373426199351,0.49906630899078225 l -9.615996811082029 -4.166127561393723" fill="#ff750a" stroke="none" /><path d="M 118.97047184881838 109.00673069616215 l 18.798836413737057 8.925242256970149 a41.810002399232246,41.810002399232246 0 0,0 -0.31426536760237106,0.6474797395880313 l -18.64241778951997 -9.247510952523456" fill="#fffc17" stroke="none" /><path d="M 118.64920377521936 109.65438752849418 l 22.852746834409693 11.830492963089775 a46.7334141074856,46.7334141074856 0 0,0 -0.37597586169271857,0.7112046401197248 l -22.64571846449208 -12.222112618295633" fill="#c6ff1e" stroke="none" /><line stroke="#e1ed5e" stroke-width="0.3" x1="174.80103733775053" x2="179.2010983576182" y1="140.37084112569926" y2="142.7455964860345" /><path d="M 175.68104954172406 140.8457921977663 a86.0,86.0 0 0,1 -30.038265399797805,32.042727171017184" fill="none" id="id29" stroke="none" /><text fill="#e1ed5e" style="font-size:6.75px; font-family:Arial;" text-anchor="middle"><textPath startOffset="22.206326154141568" xlink:href="#id29">May</textPath></text><path d="M 118.48025628344425 109.97397251340804 l 9.2695688571065 5.002875694681239 a31.53345489443378,31.53345489443378 0 0,0 -0.261913258337429,0.47544864173098883 l -9.18207918931756 -5.161694854810032" fill="#ff750a" stroke="none" /><path d="M 117.75023020441432 111.22182372390056 l 19.409118681267863 12.270584999133515 a43.96260316698657,43.96260316698657 0 0,0 -0.40988875682765025,0.6361564530319973 l -19.195025061063163 -12.602863052086965" fill="#e7ff1a" stroke="none" /><path d="M 117.55443506779139 111.5257021239791 l 21.45545339620799 14.086990770402602 a46.66670585412668,46.66670585412668 0 0,0 -0.4466601408281327,0.6676963068943257 l -21.209790149969134 -14.454223991502735" fill="#c7ff1e" stroke="none" /><path d="M 117.14729908036423 112.12312394758627 l 16.988620739306263 12.010938513167272 a41.80566938579655,41.80566938579655 0 0,0 -0.4204858175021358,0.5840180237815789 l -16.779355129428524 -12.30159014239998" fill="#fffc17" stroke="none" /><path d="M 116.0416608686014 113.55231037782055 l 8.053314027806218 6.803597967122562 a31.542523992322458,31.542523992322458 0 0,0 -0.35396343075401004,0.4117394369782159 l -7.935008087481428 -6.941214503262306" fill="#ff750a" stroke="none" /><path d="M 115.80600337817218 113.82643327865902 l 15.67915337505321 13.715470180489364 a41.83146593090211,41.83146593090211 0 0,0 -0.4787534591775885,0.5378845866165952 l -15.440741066227282 -13.983328936846826" fill="#fffd17" stroke="none" /><path d="M 115.07121518719521 114.62390073753431 l 16.874879498021695 16.374032197920467 a44.51319817658349,44.51319817658349 0 0,0 -0.5383116183668674,0.5453068273451737 l -16.59052725459929 -16.662079519246305" fill="#e1ff1b" stroke="none" /><path d="M 114.81725581225074 114.88116024355365 l 44.45176743675221 44.643480730660954 a84.0,84.0 0 0,0 -1.033400190496823,1.011399588309712 l -43.67671729387959 -45.40203042189324" fill="#4dd2ff" stroke="none" /><path d="M 114.55890576462653 115.13401014063108 l 17.53883573028405 18.231652988777377 a46.29829894433781,46.29829894433781 0 0,0 -0.5790906695875925,0.5475663731122086 l -17.222409226305647 -18.530853998635507" fill="#cbff1d" stroke="none" /><path d="M 113.75828350139079 115.86535959552629 l 13.661005042948856 15.753182976697074 a41.85151871401152,41.85151871401152 0 0,0 -0.5483236979003022,0.4672933509792192 l -13.387815868471508 -15.986000717899241" fill="#fffd17" stroke="none" /><line stroke="#e1ed5e" stroke-width="0.3" x1="143.8653032363475" x2="146.44561519142675" y1="172.8068346515853" y2="177.08958963109032" /><path d="M 144.38136562736335 173.6633856474863 a86.0,86.0 0 0,1 -40.68145358897372,12.25698825130547" fill="none" id="id30" stroke="none" /><text fill="#e1ed5e" style="font-size:6.75px; font-family:Arial;" text-anchor="middle"><textPath startOffset="21.466115282336833" xlink:href="#id30">June</textPath></text><path d="M 110.8373102113329 117.98757091392108 l 10.35230937790682 17.182575327890913 a41.060189539347405,41.060189539347405 0 0,0 -0.6085357241099641,0.35953363211354533 l -10.055005782768475 -17.35822753229821" fill="#fff316" stroke="none" /><path d="M 109.89434966115114 118.52300852407294 l 12.10429348877879 22.660198916443477 a46.690436660268716,46.690436660268716 0 0,0 -0.7121605536806902,0.37256874289933933 l -11.712442032571603 -22.865197078287533" fill="#c7ff1e" stroke="none" /><path d="M 109.57404056367764 118.69057910512821 l 11.70313904210066 22.847035647055343 a46.670031190019195,46.670031190019195 0 0,0 -0.7181542003513519,0.36009742469281064 l -11.308130934066547 -23.045100912657457" fill="#c7ff1e" stroke="none" /><path d="M 109.2508944713604 118.85261126421891 l 11.344908122499952 23.120049993427152 a46.753517274472166,46.753517274472166 0 0,0 -0.7255418574372745,0.34830418267595786 l -10.945253597062445 -23.31190845260267" fill="#c6ff1e" stroke="none" /><path d="M 108.92500713936063 119.00905698771935 l 8.833037596021969 18.81317431074657 a41.78360124760077,41.78360124760077 0 0,0 -0.6536785839013921,0.30007177695921416 l -8.507891016353158 -18.96243315803986" fill="#fffc17" stroke="none" /><path d="M 107.59598834532513 119.57807347666477 l 7.4965734786654625 19.32183933363405 a41.72515595009597,41.72515595009597 0 0,0 -0.6718341795309074,0.2540302001330234 l -7.16286907837428 -19.448017783873706" fill="#fffb17" stroke="none" /><path d="M 107.2578585660854 119.70592522655815 l 7.160187431975104 19.44073680382359 a41.71739683301344,41.71739683301344 0 0,0 -0.6759816249391202,0.24238296042894045 l -6.8244862464062495 -19.561107305292488" fill="#fffb17" stroke="none" /><path d="M 106.57524785965236 119.94407469862006 l 6.468289653106198 19.6196485314976 a41.65839731285989,41.65839731285989 0 0,0 -0.6829569996446946,0.2186612642150226 l -6.1296113083705634 -19.728082642372332" fill="#fffa17" stroke="none" /><path d="M 106.2309692047433 120.05430185196036 l 7.62205400906138 24.531492101309237 a46.68832053742802,46.68832053742802 0 0,0 -0.7695236256837746,0.23185115591996444 l -7.19865540893736 -24.65905862633493" fill="#c7ff1e" stroke="none" /><path d="M 105.88484417918355 120.15858648285463 l 7.213522829572392 24.70998710897996 a46.74137476007678,46.74137476007678 0 0,0 -0.7742794018558463,0.21881909303236374 l -6.7871122596119395 -24.830494995350843" fill="#c6ff1e" stroke="none" /><line stroke="#e1ed5e" stroke-width="0.3" x1="102.19456741930631" x2="102.32365962044197" y1="184.97166512339345" y2="189.96999836594603" /><path d="M 102.22038585953345 185.97133177190398 a86.0,86.0 0 0,1 -42.740103519485714,-10.115201625700543" fill="none" id="id31" stroke="none" /><text fill="#e1ed5e" style="font-size:6.75px; font-family:Arial;" text-anchor="middle"><textPath startOffset="22.20632615414155" xlink:href="#id31">July</textPath></text><line stroke="#e1ed5e" stroke-width="0.3" x1="58.666819895761336" x2="56.23545636021788" y1="174.27360380694188" y2="178.64263932499728" /><path d="M 58.180547188652646 175.14741091055294 a86.0,86.0 0 0,1 -31.652253787137756,-30.449443065178592" fill="none" id="id32" stroke="none" /><text fill="#e1ed5e" style="font-size:6.75px; font-family:Arial;" text-anchor="middle"><textPath startOffset="22.20632615414155" xlink:href="#id32">August</textPath></text><line stroke="#e1ed5e" stroke-width="0.3" x1="26.63291911575756" x2="22.317208475507996" y1="142.92168965132927" y2="145.44649492493687" /><path d="M 25.769776987707644 143.4266507060508 a86.0,86.0 0 0,1 -11.730757126820373,-40.83630448921669" fill="none" id="id33" stroke="none" /><text fill="#e1ed5e" style="font-size:6.75px; font-family:Arial;" text-anchor="middle"><textPath startOffset="21.46611528233685" xlink:href="#id33">September</textPath></text><line stroke="#e1ed5e" stroke-width="0.3" x1="15.007084014347285" x2="10.007500721073583" y1="101.09737516637583" y2="101.16192664675087" /><path d="M 14.007167355692545 101.11028546245083 a86.0,86.0 0 0,1 10.666146001902534,-42.60595125391555" fill="none" id="id34" stroke="none" /><text fill="#e1ed5e" style="font-size:6.75px; font-family:Arial;" text-anchor="middle"><textPath startOffset="22.20632615414155" xlink:href="#id34">October</textPath></text><line stroke="#e1ed5e" stroke-width="0.3" x1="26.266209847984243" x2="21.928928074336255" y1="57.711370442889674" y2="55.22380399835377" /><path d="M 25.398753493254645 57.213857153982495 a86.0,86.0 0 0,1 29.58750427330803,-30.492523968695096" fill="none" id="id35" stroke="none" /><text fill="#e1ed5e" style="font-size:6.75px; font-family:Arial;" text-anchor="middle"><textPath startOffset="21.46611528233685" xlink:href="#id35">November</textPath></text><line stroke="#e1ed5e" stroke-width="0.3" x1="56.762969772571076" x2="54.21961505331055" y1="26.818313649435495" y2="22.513508569990535" /><path d="M 56.25429882871897 25.957352633546506 a86.0,86.0 0 0,1 42.265352541879196,-11.944610805530505" fill="none" id="id36" stroke="none" /><text fill="#e1ed5e" style="font-size:6.75px; font-family:Arial;" text-anchor="middle"><textPath startOffset="22.20632615414155" xlink:href="#id36">December</textPath></text></svg>