<?xml version="1.0" encoding="utf-8" ?>
<svg baseProfile="full" height="200mm" version="1.1" viewBox="0,0,200,200" width="200mm" xmlns="http://www.w3.org/2000/svg" xmlns:ev="http://www.w3.org/2001/xml-events" xmlns:xlink="http://www.w3.org/1999/xlink"><defs /><rect fill="#1a1a1a" height="200" width="200" x="0" y="0" /><text alignment-baseline="middle" fill="#e1ed5e" style="dominant-baseline: central; font-size:9.0px; font-family:Arial;" text-anchor="middle" x="100.0" y="100.0">2025</text><line stroke="#e1ed5e" stroke-width="0.3" x1="100.0" x2="100.0" y1="15.0" y2="10.0" /><path d="M 100.0 14.0 a86.0,86.0 0 0,1 42.46469731375804,11.215312516191453" fill="none" id="id13" stroke="none" /><text fill="#e1ed5e" style="font-size:6.75px; font-family:Arial;" text-anchor="middle"><textPath startOffset="22.20632615414155" xlink:href="#id13">January</textPath></text><line stroke="#e1ed5e" stroke-width="0.3" x1="143.23703022742887" x2="145.7803849466894" y1="26.81831364943548" y2="22.513508569990506" /><path d="M 143.74570117128098 25.957352633546492 a86.0,86.0 0 0,1 28.547481713284135,27.462654790039103" fill="none" id="id14" stroke="none" /><text fill="#e1ed5e" style="font-size:6.75px; font-family:Arial;" text-anchor="middle"><textPath startOffset="19.985693538727396" xlink:href="#id14">February</textPath></text><line stroke="#e1ed5e" stroke-width="0.3" x1="172.23445277983987" x2="176.4835382374775" y1="55.19839476539836" y2="52.563006222186495" /><path d="M 173.08426987136738 54.67131705675599 a86.0,86.0 0 0,1 12.851231095245387,41.99856678651699" fill="none" id="id15" stroke="none" /><text fill="#e1ed5e" style="font-size:6.75px; font-family:Arial;" text-anchor="middle"><textPath startOffset="22.20632615414155" xlink:href="#id15">March</textPath></text><path d="M 118.56541770881063 90.18545643968196 l 9.776780999341515 -5.16846130276884 a32.05886246172292,32.05886246172292 0 0,0 0.2537085964169333,0.49008425445318704 l -9.864299028918564 4.999404326055308" fill="#ff8e0d" stroke="none" /><path d="M 118.73160827565052 90.50648371742162 l 9.121587012707133 -4.6229845058557 a31.22620825974952,31.22620825974952 0 0,0 0.23886560430287349,0.4815384824978464 l -9.199812629963414 4.465286434858903" fill="#ff830c" stroke="none" /><path d="M 118.89224826269711 90.83032412892265 l 10.42240166790617 -5.058690938419396 a32.585197906709226,32.585197906709226 0 0,0 0.24057466368952493,0.506711595918566 l -10.507934525437452 4.878536926860289" fill="#ff950d" stroke="none" /><path d="M 119.04729006885535 91.15688171328212 l 9.337989427658126 -4.335364493867042 a31.29531115827676,31.29531115827676 0 0,0 0.22264033223607912,0.49055845998781533 l -9.411232076857553 4.173984025037163" fill="#ff840c" stroke="none" /><path d="M 119.34039704204932 91.81776055985345 l 1.902626169047281 -0.8049339859149045 a23.065890863725475,23.065890863725475 0 0,0 0.15155203389732916,0.36699527108188124 l -1.9161998898308075 0.7720641443797202" fill="#ff1202" stroke="none" /><path d="M 119.47837535516314 92.15188598940014 l 5.325728214766301 -2.1458115195359575 a26.741766983684645,26.741766983684645 0 0,0 0.16835400394303307,0.42844257678598846 l -5.361875768591035 2.0538199378541844" fill="#ff4606" stroke="none" /><path d="M 119.97218684219823 93.5106431181261 l 11.050164654594074 -3.590416142894305 a32.61883070591857,32.61883070591857 0 0,0 0.16891042691247127,0.5354922122490589 l -11.11033056527475 3.3996737642188273" fill="#ff960d" stroke="none" /><path d="M 120.18372546131832 94.20196356495316 l 10.06867732965776 -2.8923579109301274 a31.475876930056224,31.475876930056224 0 0,0 0.14510863308830724,0.5220329595102269 l -10.11697273331243 2.718613648000949" fill="#ff860c" stroke="none" /><path d="M 120.37134235888165 94.90015583598534 l 10.072957298985903 -2.5217048337123997 a31.383807780172063,31.383807780172063 0 0,0 0.12668178584180448,0.5251777876530902 l -10.114871885088528 2.347941814399903" fill="#ff850c" stroke="none" /><path d="M 120.53481517161879 95.60439243477599 l 10.146702624057912 -2.171966119180385 a31.376560651966106,31.376560651966106 0 0,0 0.10850418696721821,0.529104950129829 l -10.182586106940128 1.9969855128871439" fill="#ff850c" stroke="none" /><path d="M 120.73433829027371 96.67025291283417 l 6.6646951198373925 -1.0702897218830865 a27.75008749048136,27.75008749048136 0 0,0 0.07167993823344866,0.47228123334740074 l -6.682130951510142 0.9554093761436036" fill="#ff5407" stroke="none" /><path d="M 120.78858239683441 97.02765380044208 l 15.280724604675603 -2.184834099708256 a36.436127898122194,36.436127898122194 0 0,0 0.08342832419914803,0.6216379196230074 l -15.316068927932587 1.921477838020584" fill="#ffc712" stroke="none" /><path d="M 120.91429891909075 98.10471618934814 l 10.363084078557714 -0.9391175653794477 a31.40554916478994,31.40554916478994 0 0,0 0.044155478572507546,0.5388086803105236 l -10.377714040949716 0.7605949678611552" fill="#ff850c" stroke="none" /><line stroke="#e1ed5e" stroke-width="0.3" x1="184.98032266829074" x2="189.97916517819016" y1="98.17113171792111" y2="98.06355123074" /><path d="M 185.9800911702706 98.14961562048488 a86.0,86.0 0 0,1 -9.607161424134198,41.387399972396054" fill="none" id="id16" stroke="none" /><text fill="#e1ed5e" style="font-size:6.75px; font-family:Arial;" text-anchor="middle"><textPath startOffset="21.466115282336823" xlink:href="#id16">April</textPath></text><path d="M 120.99513854157772 99.54816195383933 l 1.343826972431261 -0.02892060713954773 a22.344138137748903,22.344138137748903 0 0,0 0.00496571112617403,0.3845997991278401 l -1.3441256906751506 0.005784549951244885" fill="#ff0701" stroke="none" /><path d="M 120.99980553446 99.90962569577887 l 4.317513201189821 -0.018580755468558093 a25.317553182871308,25.317553182871308 0 0,0 -0.0018755517195116432,0.43581216717533866 l -4.317193352180807 -0.05574088991046528" fill="#ff3204" stroke="none" /><path d="M 120.9764740272857 100.99374915477107 l 1.3993718800302795 0.0662944888250329 a22.400941332771666,22.400941332771666 0 0,0 -0.021562131804270867,0.3850063479861025 l -1.3980233973384792 -0.09037255314655872" fill="#ff0801" stroke="none" /><path d="M 120.95626037817324 101.35467743843564 l 1.5560076807098442 0.10058514549120809 a22.559255358791983,22.559255358791983 0 0,0 -0.028385388597584087,0.3872960751177953 l -1.5540457334479223 -0.12735435710577364" fill="#ff0a01" stroke="none" /><path d="M 120.89721153311464 102.0752229133903 l 14.642505242255021 1.454091726066584 a35.714528280488,35.714528280488 0 0,0 -0.0660169424201971,0.6112348964836677 l -14.61530599833377 -1.705922944435043" fill="#ffbe11" stroke="none" /><path d="M 120.8583938346157 102.4346265915055 l 10.65459031287819 1.243621589610673 a31.72692357544434,31.72692357544434 0 0,0 -0.0679839846255042,0.5418992475044081 l -10.631604819005839 -1.426838591402476" fill="#ff8a0c" stroke="none" /><path d="M 120.81339534386255 102.79330883721812 l 2.0958398827245195 0.28127693579485574 a23.114630352716254,23.114630352716254 0 0,0 -0.05631819035224752,0.3938892921532657 l -2.0906876413556708 -0.31731169992853075" fill="#ff1202" stroke="none" /><path d="M 120.76222939487914 103.15116336523771 l 1.422620248114637 0.21591654360633805 a22.438912201681763,22.438912201681763 0 0,0 -0.061245670544832265,0.3813768489462285 l -1.4186928232085163 -0.24037262224577144" fill="#ff0901" stroke="none" /><path d="M 120.64145759157962 103.86396538481128 l 7.5955955468491565 1.421852993657986 a28.727531148231556,28.727531148231556 0 0,0 -0.09517029844886504,0.4852713014315801 l -7.569995315424627 -1.552388022157511" fill="#ff6109" stroke="none" /><path d="M 120.49622156327973 104.57218783832717 l 11.54009567517847 2.5743030214755303 a32.823740704136355,32.823740704136355 0 0,0 -0.12776161853325635,0.5503937088090523 l -11.494073490714662 -2.7725653876331475" fill="#ff980e" stroke="none" /><path d="M 119.9155931802556 106.66101706037122 l 0.8069847015466423 0.26990603874103514 a21.850925130830674,21.850925130830674 0 0,0 -0.12237472132184152,0.35567822249856784 l -0.80221914928157 -0.2837569643289034" fill="#ff0000" stroke="none" /><path d="M 119.54520255179757 107.68017299344265 l 10.157561426934777 3.9913543358600045 a31.91361368091897,31.91361368091897 0 0,0 -0.20530694180436512,0.5095549924586841 l -10.08735187087302 -4.165608696161502" fill="#ff8c0c" stroke="none" /><path d="M 119.41010516605496 108.01547362559984 l 9.766439348122244 4.033086701034344 a31.56641499651658,31.56641499651658 0 0,0 -0.21171897997789263,0.5004411278920958 l -9.695569386952041 -4.200602354592603" fill="#ff880c" stroke="none" /><path d="M 118.97047184881838 109.00673069616215 l 18.80835562619302 8.92976175357064 a41.82054001069328,41.82054001069328 0 0,0 -0.31434457368104646,0.6476429275701682 l -18.65185779589726 -9.252193637106084" fill="#f5ff19" stroke="none" /><path d="M 118.81262510543309 109.33194174019688 l 18.65044047105256 9.251490577708282 a41.818957891155364,41.818957891155364 0 0,0 -0.32543379651069576,0.6421117544278773 l -18.488428004755594 -9.571156543838853" fill="#f5ff19" stroke="none" /><path d="M 118.64920377521936 109.65438752849418 l 22.91788961625564 11.864216314939284 a46.80676836084963,46.80676836084963 0 0,0 -0.37656600536495133,0.7123209695461398 l -22.710271102665793 -12.256952299571557" fill="#baff1f" stroke="none" /><line stroke="#e1ed5e" stroke-width="0.3" x1="174.80103733775053" x2="179.2010983576182" y1="140.37084112569926" y2="142.7455964860345" /><path d="M 175.68104954172406 140.8457921977663 a86.0,86.0 0 0,1 -30.038265399797805,32.042727171017184" fill="none" id="id17" stroke="none" /><text fill="#e1ed5e" style="font-size:6.75px; font-family:Arial;" text-anchor="middle"><textPath startOffset="22.206326154141568" xlink:href="#id17">May</textPath></text><path d="M 118.48025628344425 109.97397251340804 l 9.284157267732406 5.010749200565865 a31.550032403881985,31.550032403881985 0 0,0 -0.26205094922887223,0.47569859069398124 l -9.196529909052023 -5.169818309657652" fill="#ff870c" stroke="none" /><path d="M 118.30583269289576 110.29060199501025 l 9.042866619115223 5.083436674661219 a31.37375366568915,31.37375366568915 0 0,0 -0.26869080809434087,0.46848507192809785 l -8.954023814868503 -5.238341592447632" fill="#ff850c" stroke="none" /><path d="M 117.94076556474637 110.91462005526583 l 13.16427399678509 8.008746809593363 a36.40902772152104,36.40902772152104 0 0,0 -0.3303432007742447,0.532618423213082 l -13.024466156342882 -8.234161564171718" fill="#ffc712" stroke="none" /><path d="M 117.75023020441432 111.22182372390056 l 12.906828210342075 8.15979000515191 a36.26985223829815,36.26985223829815 0 0,0 -0.33816479401389443,0.524839269964731 l -12.76445855295113 -8.380750875038094" fill="#ffc512" stroke="none" /><path d="M 117.55443506779139 111.5257021239791 l 21.677228714855264 14.232601623233121 a46.93201098491599,46.93201098491599 0 0,0 -0.4491994507046686,0.6714922306216584 l -21.429026158739873 -14.603630768060587" fill="#b9ff1f" stroke="none" /><path d="M 117.35343817320211 111.8261652097733 l 17.003380685514845 11.587605124965394 a41.57638324071224,41.57638324071224 0 0,0 -0.4081199011771326,0.5879271566662219 l -16.801399877175577 -11.878573543818636" fill="#f8ff18" stroke="none" /><path d="M 117.14729908036423 112.12312394758627 l 17.16249580853935 12.133868019781039 a42.018611169618126,42.018611169618126 0 0,0 -0.4226276083493122,0.5869927839419856 l -16.951088407814435 -12.427494409174155" fill="#f2ff19" stroke="none" /><path d="M 116.93607887273984 112.41649034213515 l 12.072523033076235 8.850830630381047 a35.9694026344356,35.9694026344356 0 0,0 -0.3703799077811702,0.4961844130923671 l -11.918381858599972 -9.05732792298273" fill="#ffc111" stroke="none" /><path d="M 116.71984013943494 112.70617746262583 l 8.357414301481537 6.351184482491129 a31.4968527729622,31.4968527729622 0 0,0 -0.33175662440311504,0.4288401582840434 l -8.246850859860352 -6.494102634888425" fill="#ff870c" stroke="none" /><path d="M 116.498646956653 112.99209946851258 l 12.062194711661263 9.498550633527897 a36.35314317655255,36.35314317655255 0 0,0 -0.3913711672725638,0.48829570724048693 l -11.896905632333844 -9.704774174346634" fill="#ffc612" stroke="none" /><path d="M 116.27256486870786 113.27417163493432 l 16.527551196096766 13.48217401818681 a42.329063851849455,42.329063851849455 0 0,0 -0.4654261982930312,0.5606358384430642 l -16.29302899791019 -13.764671113743645" fill="#efff19" stroke="none" /><path d="M 116.0416608686014 113.55231037782055 l 34.90712292057788 29.49022349315195 a66.69661379433256,66.69661379433256 0 0,0 -0.7484550774713996,0.8706223452097948 l -34.394325333535704 -30.086722937523277" fill="#38ff7d" stroke="none" /><path d="M 115.80600337817218 113.82643327865902 l 31.51095445756393 27.564470216173888 a62.8657409957713,62.8657409957713 0 0,0 -0.7194868813634901,0.8083511384399424 l -31.0318087265521 -28.102795524354697" fill="#33ff51" stroke="none" /><path d="M 115.56566222782051 114.09645910891815 l 7.754661050708956 7.022718391605817 a31.46199510701382,31.46199510701382 0 0,0 -0.3669870815754312,0.3982919962212461 l -7.632627561137802 -7.155161642628398" fill="#ff860c" stroke="none" /><path d="M 115.07121518719521 114.62390073753431 l 15.081422034051618 14.633804644645817 a42.014222063803246,42.014222063803246 0 0,0 -0.5080907416238761,0.5146932387581278 l -14.827290667372205 -14.89123837738461" fill="#f2ff19" stroke="none" /><path d="M 114.81725581225074 114.88116024355365 l 44.45176743675221 44.643480730660954 a84.0,84.0 0 0,0 -1.033400190496823,1.011399588309712 l -43.67671729387959 -45.40203042189324" fill="#4dd2ff" stroke="none" /><path d="M 114.55890576462653 115.13401014063108 l 10.58233906761068 11.000361520983082 a36.26413619351598,36.26413619351598 0 0,0 -0.45358519403847564,0.428893112323713 l -10.391418039181398 -11.180889270052717" fill="#ffc512" stroke="none" /><path d="M 114.0293411484842 115.62618273729858 l 13.936351672230662 15.522609053174392 a41.86080750473907,41.86080750473907 0 0,0 -0.5403186660792775,0.47676840104088025 l -13.667090653244799 -15.76020059598756" fill="#f4ff19" stroke="none" /><path d="M 113.75828350139079 115.86535959552629 l 13.743493363345115 15.848304353239818 a41.97742502551806,41.97742502551806 0 0,0 -0.5499732775675543,0.468699158558518 l -13.468654609200513 -16.082527902021283" fill="#f3ff19" stroke="none" /><path d="M 112.92097659922987 116.55440617244103 l 6.283581391509446 8.050549257928344 a31.212479545049497,31.212479545049497 0 0,0 -0.42637922352186514,0.32692940685375205 l -6.144073439494087 -8.157518006609466" fill="#ff830c" stroke="none" /><path d="M 111.7513745106137 117.40417183066458 l 2.4582669894580103 3.6407741963746982 a25.392984559550236,25.392984559550236 0 0,0 -0.36435946296656735,0.24147758413998943 l -2.395232827751479 -3.682549801606006" fill="#ff3304" stroke="none" /><path d="M 111.1453310114006 117.79835938074945 l 8.168743389808666 13.044945044002368 a36.39152233437566,36.39152233437566 0 0,0 -0.5337783726245546,0.32789027311126373 l -7.942985817251802 -13.183623783942009" fill="#ffc612" stroke="none" /><line stroke="#e1ed5e" stroke-width="0.3" x1="143.8653032363475" x2="146.44561519142675" y1="172.8068346515853" y2="177.08958963109032" /><path d="M 144.38136562736335 173.6633856474863 a86.0,86.0 0 0,1 -40.68145358897372,12.25698825130547" fill="none" id="id18" stroke="none" /><text fill="#e1ed5e" style="font-size:6.75px; font-family:Arial;" text-anchor="middle"><textPath startOffset="21.466115282336833" xlink:href="#id18">June</textPath></text><path d="M 110.8373102113329 117.98757091392108 l 9.93315044071614 16.486862926945086 a40.24796422611429,40.24796422611429 0 0,0 -0.5964980758508127,0.3524215773413329 l -9.647884493836946 -16.655403076580168" fill="#fff617" stroke="none" /><path d="M 110.21172684928248 118.3499491758327 l 0.8542917483502802 1.5351184373544382 a22.756816156575557,22.756816156575557 0 0,0 -0.34392830107600264,0.1875371320037948 l -0.8277406354056288 -1.5495962211180034" fill="#ff0d01" stroke="none" /><path d="M 109.89434966115114 118.52300852407294 l 12.241486386840311 22.917034919542665 a46.981618087846925,46.981618087846925 0 0,0 -0.716601889883958,0.3748922400903768 l -11.845193594429858 -23.124356578577757" fill="#b8ff1f" stroke="none" /><path d="M 109.57404056367764 118.69057910512821 l 7.143860518037736 13.946346815674753 a36.66956708413668,36.66956708413668 0 0,0 -0.5642679671525542,0.2829356727411359 l -6.902738643202421 -14.06725032932519" fill="#ffca12" stroke="none" /><path d="M 109.2508944713604 118.85261126421891 l 11.4165009739826 23.26595071713315 a46.91603668119441,46.91603668119441 0 0,0 -0.7280639058113173,0.34951491916012567 l -11.01432440017105 -23.459019912792836" fill="#b9ff1f" stroke="none" /><path d="M 108.92500713936063 119.00905698771935 l 8.912788233262606 18.983032371859878 a41.97124965570875,41.97124965570875 0 0,0 -0.656614227120762,0.3014193867770195 l -8.584706010374425 -19.133638828970973" fill="#f3ff19" stroke="none" /><path d="M 108.59647513512805 119.15986991738527 l 10.625806513651447 23.682854585007107 a46.957375933636854,46.957375933636854 0 0,0 -0.7403150639976532,0.32453236820231496 l -10.216570774996041 -23.862251506503878" fill="#b9ff1f" stroke="none" /><path d="M 108.2653958097858 119.30500536409082 l 4.033714296189167 9.42131241107009 a31.248511041622788,31.248511041622788 0 0,0 -0.49629858478999617,0.20745284869322542 l -3.87094425190171 -9.48935030278329" fill="#ff830c" stroke="none" /><path d="M 107.59598834532513 119.57807347666477 l 7.593083899108286 19.570587490792065 a41.991970318044096,41.991970318044096 0 0,0 -0.6761302692133974,0.2556546136491597 l -7.255083409134613 -19.698390354547858" fill="#f3ff19" stroke="none" /><path d="M 107.2578585660854 119.70592522655815 l 7.2625093058058985 19.718552522660126 a42.013456522091346,42.013456522091346 0 0,0 -0.6807789259428941,0.2441031018890995 l -6.922010819233269 -19.840643165589185" fill="#f2ff19" stroke="none" /><path d="M 106.91757812671514 119.82793768551818 l 6.898709762987517 19.773855066808878 a41.94272046791205,41.94272046791205 0 0,0 -0.68372679519617,0.23195725126239358 l -6.55731323485412 -19.889675304969394" fill="#f3ff19" stroke="none" /><path d="M 106.57524785965236 119.94407469862006 l 6.576073480930574 19.94657897721105 a42.002636865896534,42.002636865896534 0 0,0 -0.6886005391821208,0.22046814735780185 l -6.231751596657513 -20.056819971228556" fill="#f2ff19" stroke="none" /><path d="M 106.2309692047433 120.05430185196036 l 3.164992343626753 10.186491014899689 a31.666854069117477,31.666854069117477 0 0,0 -0.5219376511462044,0.15725553277051277 l -2.9891797180403032 -10.239461916775928" fill="#ff890c" stroke="none" /><path d="M 105.88484417918355 120.15858648285463 l 7.2702915886012764 24.904449001863394 a46.94395343562159,46.94395343562159 0 0,0 -0.777635154581022,0.21976746227220634 l -6.840525265915648 -25.02590525747412" fill="#b9ff1f" stroke="none" /><path d="M 105.53697534728816 120.25689768951611 l 0.4590268378186359 1.6793391892178673 a22.740943925082224,22.740943925082224 0 0,0 -0.37848463053828835,0.09996123091843805 l -0.43005176446885013 -1.6869917694398893" fill="#ff0d01" stroke="none" /><path d="M 105.18746579009965 120.34920634021253 l 6.413837804102005 25.159974868156194 a46.96462306184281,46.96462306184281 0 0,0 -0.7850846028158645,0.19295469435865178 l -5.97979991654293 -25.266650820828875" fill="#b9ff1f" stroke="none" /><path d="M 104.83641907484287 120.43548508189849 l 4.738857733174178 20.02325584547625 a41.57638324071224,41.57638324071224 0 0,0 -0.6978493977843506,0.1588282509331407 l -4.393488185996965 -20.101860829987075" fill="#f8ff18" stroke="none" /><path d="M 104.48393922423573 120.51570834832081 l 4.489514998047884 20.541219610544914 a42.02611347839471,42.02611347839471 0 0,0 -0.7080570376949501,0.14838023655860308 l -4.135266498923556 -20.615455827830058" fill="#f2ff19" stroke="none" /><path d="M 104.13013068566511 120.58985236759428 l 5.0477081310658605 25.164231624456306 a46.66550039694756,46.66550039694756 0 0,0 -0.7889411391968271,0.15120244702280877 l -4.613799377297329 -25.24739126982758" fill="#bcff1f" stroke="none" /><path d="M 103.7750983002368 120.6578951692458 l 2.7647712639328494 15.129236484699026 a36.379784028126565,36.379784028126565 0 0,0 -0.6169855952019984,0.10727085429144727 l -2.5039366972588013 -15.174585917511479" fill="#ffc612" stroke="none" /><path d="M 103.41894727170886 120.7198165907248 l 2.520131010942704 15.272728176714974 a36.47925341455907,36.47925341455907 0 0,0 -0.6204324305722401,0.09689878581799888 l -2.2568627167619466 -15.313845269880078" fill="#ffc712" stroke="none" /><path d="M 102.70371172650421 120.8252237178851 l 3.324414218270181 25.60615806327415 a46.821058472805035,46.821058472805035 0 0,0 -0.8001330433141689,0.09688496859310339 l -2.883153751904632 -25.659588560592606" fill="#baff1f" stroke="none" /><path d="M 102.34483914955558 120.86867818915974 l 2.8977365763494225 25.789373271192062 a46.95165988885468,46.95165988885468 0 0,0 -0.8039184014901122,0.08332942933847858 l -2.4533855782537075 -25.835432068986297" fill="#b9ff1f" stroke="none" /><path d="M 101.98527174616119 120.90594882070398 l 2.464477766676833 25.952238608913067 a47.06899191523144,47.06899191523144 0 0,0 -0.8072459474499066,0.06965257705977923 l -2.0173875014853846 -25.99081543825151" fill="#b7ff1f" stroke="none" /><path d="M 101.26447882468166 120.96189622390904 l 1.2490879574396854 20.706754140368396 a41.74439412841659,41.74439412841659 0 0,0 -0.7176297312956511,0.037093260049098006 l -0.8924701577305547 -20.725187207179697" fill="#f6ff19" stroke="none" /><path d="M 100.90346689309514 120.98055641714683 l 1.1141467771798967 25.87302256923267 a46.89700021062524,46.89700021062524 0 0,0 -0.806806273505164,0.02778803937296819 l -0.6686201520000805 -25.888367407031733" fill="#b9ff1f" stroke="none" /><line stroke="#e1ed5e" stroke-width="0.3" x1="102.19456741930631" x2="102.32365962044197" y1="184.97166512339345" y2="189.96999836594603" /><path d="M 102.22038585953345 185.97133177190398 a86.0,86.0 0 0,1 -42.740103519485714,-10.115201625700543" fill="none" id="id19" stroke="none" /><text fill="#e1ed5e" style="font-size:6.75px; font-family:Arial;" text-anchor="middle"><textPath startOffset="22.20632615414155" xlink:href="#id19">July</textPath></text><path d="M 100.54218724476979 120.99299961872073 l 0.5424714228836992 21.00400273820463 a42.01100678861327,42.01100678861327 0 0,0 -0.7230700629332197,0.012448306869882087 l -0.18084167005781154 -21.01022852235367" fill="#f2ff19" stroke="none" /><path d="M 100.18074693466247 120.99922214144158 l 0.1798401397576777 20.893870492309233 a41.89464444840492,41.89464444840492 0 0,0 -0.7211741488402519,0.0 l 0.1798401397576633 -20.893870492309233" fill="#f4ff19" stroke="none" /><path d="M 99.81925306533755 120.99922214144158 l -0.1802758932917566 20.944496442223304 a41.94527227361838,41.94527227361838 0 0,0 -0.721938677053005,-0.012428829035924986 l 0.5407742602374295 -20.938290135908222" fill="#f3ff19" stroke="none" /><path d="M 99.45781275523022 120.99299961872073 l -0.6669229893538072 25.82265480473532 a46.831265695630336,46.831265695630336 0 0,0 -0.8056753905308895,-0.02774908947675655 l 1.1113187315593398 -25.807348916832467" fill="#baff1f" stroke="none" /><path d="M 98.73552117531835 120.96189622390904 l -1.2607378964175746 20.899880990026137 a41.937872037070036,41.937872037070036 0 0,0 -0.7202075423931165,-0.04966972881076782 l 1.6203081995896211 -20.875082916699085" fill="#f3ff19" stroke="none" /><line stroke="#e1ed5e" stroke-width="0.3" x1="58.666819895761336" x2="56.23545636021788" y1="174.27360380694188" y2="178.64263932499728" /><path d="M 58.180547188652646 175.14741091055294 a86.0,86.0 0 0,1 -31.652253787137756,-30.449443065178592" fill="none" id="id20" stroke="none" /><text fill="#e1ed5e" style="font-size:6.75px; font-family:Arial;" text-anchor="middle"><textPath startOffset="22.20632615414155" xlink:href="#id20">August</textPath></text><line stroke="#e1ed5e" stroke-width="0.3" x1="26.63291911575756" x2="22.317208475507996" y1="142.92168965132927" y2="145.44649492493687" /><path d="M 25.769776987707644 143.4266507060508 a86.0,86.0 0 0,1 -11.730757126820373,-40.83630448921669" fill="none" id="id21" stroke="none" /><text fill="#e1ed5e" style="font-size:6.75px; font-family:Arial;" text-anchor="middle"><textPath startOffset="21.46611528233685" xlink:href="#id21">September</textPath></text><line stroke="#e1ed5e" stroke-width="0.3" x1="15.007084014347285" x2="10.007500721073583" y1="101.09737516637583" y2="101.16192664675087" /><path d="M 14.007167355692545 101.11028546245083 a86.0,86.0 0 0,1 10.666146001902534,-42.60595125391555" fill="none" id="id22" stroke="none" /><text fill="#e1ed5e" style="font-size:6.75px; font-family:Arial;" text-anchor="middle"><textPath startOffset="22.20632615414155" xlink:href="#id22">October</textPath></text><line stroke="#e1ed5e" stroke-width="0.3" x1="26.266209847984243" x2="21.928928074336255" y1="57.711370442889674" y2="55.22380399835377" /><path d="M 25.398753493254645 57.213857153982495 a86.0,86.0 0 0,1 29.58750427330803,-30.492523968695096" fill="none" id="id23" stroke="none" /><text fill="#e1ed5e" style="font-size:6.75px; font-family:Arial;" text-anchor="middle"><textPath startOffset="21.46611528233685" xlink:href="#id23">November</textPath></text><line stroke="#e1ed5e" stroke-width="0.3" x1="56.762969772571076" x2="54.21961505331055" y1="26.818313649435495" y2="22.513508569990535" /><path d="M 56.25429882871897 25.957352633546506 a86.0,86.0 0 0,1 42.265352541879196,-11.944610805530505" fill="none" id="id24" stroke="none" /><text fill="#e1ed5e" style="font-size:6.75px; font-family:Arial;" text-anchor="middle"><textPath startOffset="22.20632615414155" xlink:href="#id24">December</textPath></text></svg>