<?xml version="1.0" encoding="utf-8" ?>
<svg baseProfile="full" height="200mm" version="1.1" viewBox="0,0,200,200" width="200mm" xmlns="http://www.w3.org/2000/svg" xmlns:ev="http://www.w3.org/2001/xml-events" xmlns:xlink="http://www.w3.org/1999/xlink"><defs /><rect fill="#1a1a1a" height="200" width="200" x="0" y="0" /><text alignment-baseline="middle" fill="#e1ed5e" style="dominant-baseline: central; font-size:9.0px; font-family:Arial;" text-anchor="middle" x="100.0" y="100.0">2024</text><line stroke="#e1ed5e" stroke-width="0.3" x1="100.0" x2="100.0" y1="15.0" y2="10.0" /><path d="M 100.0 14.0 a86.0,86.0 0 0,1 42.35913384403234,11.155469271406648" fill="none" id="id13" stroke="none" /><text fill="#e1ed5e" style="font-size:6.75px; font-family:Arial;" text-anchor="middle"><textPath startOffset="22.145653131862478" xlink:href="#id13">January</textPath></text><path d="M 100.0 79.0 l 0.0 -41.569858304686846 a62.569858304686846,62.569858304686846 0 0,0 1.0740948203635698,0.009219812217336722 l -0.7136018955147151 41.56373289066394" fill="#31ff3d" stroke="none" /><path d="M 101.08105385017728 79.02784411241856 l 0.7474432916259416 -14.500200176462707 a35.519451664291104,35.519451664291104 0 0,0 0.6086607281215792,0.03661551796587446 l -0.9962483718799832 14.48523268067214" fill="#ff920d" stroke="none" /><path d="M 101.80034050326958 79.07731436759882 l 2.553434823912862 -29.674783190474457 a50.78443866856712,50.78443866856712 0 0,0 0.867931295780751,0.08219399609520298 l -3.062465683078626 29.62657743887407" fill="#a6ff21" stroke="none" /><path d="M 102.51750503828377 79.15144685158666 l 1.8154658199277875 -15.03466132552219 a36.14387524104972,36.14387524104972 0 0,0 0.6153446191184563,0.07966868057334199 l -2.0732882609370353 15.001281048748451" fill="#ff9b0e" stroke="none" /><path d="M 102.87502721639298 79.19773525538626 l 1.683290228455925 -12.179449563017707 a33.29522092730779,33.29522092730779 0 0,0 0.5655033051436382,0.08310951168028873 l -1.892118639207245 12.148758978038536" fill="#ff720a" stroke="none" /><path d="M 103.58742460773223 79.30868818359171 l 2.4834801819311707 -14.32405373020283 a35.53775048209944,35.53775048209944 0 0,0 0.600190749701427,0.10937474800140794 l -2.7290056651836516 14.279310808270058" fill="#ff920d" stroke="none" /><path d="M 104.29559338865022 79.4440306129975 l 8.433695235149273 -40.35828473223168 a62.230066236270645,62.230066236270645 0 0,0 1.0437984830807232,0.22749102120002845 l -9.12525613484913 40.20756225289794" fill="#30ff38" stroke="none" /><path d="M 105.3480935250658 79.69241777938227 l 3.8012178951424573 -14.433843496246471 a35.925987255806156,35.925987255806156 0 0,0 0.5950345979691704,0.16217932567782256 l -4.048433894046321 14.366463676424505" fill="#ff980e" stroke="none" /><path d="M 106.72888874123014 80.10723608172694 l 10.861264950288014 -32.10939990522036 a54.8966169195942,54.8966169195942 0 0,0 0.8900943426370291,0.3096210168875417 l -11.41086506497006 31.918220455764224" fill="#77ff27" stroke="none" /><path d="M 107.06938296918511 80.22567764915836 l 1.5706893930055648 -4.393497778480097 a25.665821245912635,25.665821245912635 0 0,0 0.4135996353010898,0.151879515034451 l -1.6458781799607793 4.365887414436924" fill="#ff0000" stroke="none" /><line stroke="#e1ed5e" stroke-width="0.3" x1="143.13028292997686" x2="145.6673583964461" y1="26.7553504044142" y2="22.446841604673864" /><path d="M 143.63769802327073 25.89364864446614 a86.0,86.0 0 0,1 29.32050498858742,28.57503671076993" fill="none" id="id14" stroke="none" /><text fill="#e1ed5e" style="font-size:6.75px; font-family:Arial;" text-anchor="middle"><textPath startOffset="20.669276256404974" xlink:href="#id14">February</textPath></text><line stroke="#e1ed5e" stroke-width="0.3" x1="172.87174338648825" x2="177.1583165268699" y1="56.24261187166439" y2="53.66864786411523" /><path d="M 173.72905801456457 55.72781907015455 a86.0,86.0 0 0,1 12.242430191666344,42.057860355516425" fill="none" id="id15" stroke="none" /><text fill="#e1ed5e" style="font-size:6.75px; font-family:Arial;" text-anchor="middle"><textPath startOffset="22.145653131862474" xlink:href="#id15">March</textPath></text><path d="M 120.99303781780057 99.45929381324524 l 7.086611797749524 -0.1825259819673828 a28.088962018948607,28.088962018948607 0 0,0 0.008277641084606449,0.4821310946170374 l -7.088700870432796 0.060847971381279016" fill="#ff2503" stroke="none" /><line stroke="#e1ed5e" stroke-width="0.3" x1="184.99686870605535" x2="189.99668451229388" y1="99.2704041080226" y2="99.22748670261217" /><path d="M 185.99683186730306 99.26182062694052 a86.0,86.0 0 0,1 -10.086455211305974,41.156179273409016" fill="none" id="id16" stroke="none" /><text fill="#e1ed5e" style="font-size:6.75px; font-family:Arial;" text-anchor="middle"><textPath startOffset="21.40746469413373" xlink:href="#id16">April</textPath></text><path d="M 119.94978838288452 106.5578916946017 l 20.686844998204222 6.800176843861876 a42.77585729856628,42.77585729856628 0 0,0 -0.23529691060593136,0.6956135066853641 l -20.567062666025926 -7.154292025021401" fill="#fff417" stroke="none" /><path d="M 119.0197475246899 108.90220220490707 l 33.67451436393836 15.761373048232118 a58.18055672004695,58.18055672004695 0 0,0 -0.4311476861466255,0.9009328413453046 l -33.39898741983182 -16.337118391642527" fill="#53ff2b" stroke="none" /><line stroke="#e1ed5e" stroke-width="0.3" x1="174.33088141563837" x2="178.70328620479359" y1="141.23008692659167" y2="143.65538615756765" /><path d="M 175.20536237346943 141.71514677278685 a86.0,86.0 0 0,1 -30.301960400862466,31.631185727798858" fill="none" id="id17" stroke="none" /><text fill="#e1ed5e" style="font-size:6.75px; font-family:Arial;" text-anchor="middle"><textPath startOffset="22.145653131862474" xlink:href="#id17">May</textPath></text><path d="M 118.18653347947321 110.5 l 52.39588022316244 30.25077555127021 a81.50155110254045,81.50155110254045 0 0,0 -0.7099417315170026,1.205636268203227 l -51.868864781515676 -31.145762987766986" fill="#4aeaff" stroke="none" /><path d="M 118.00360718960297 110.81064883170644 l 54.010821568808936 32.43194649511934 a84.0,84.0 0 0,0 -0.7529281421783813,1.2298515355017718 l -53.44612546217515 -33.35433514674567" fill="#4dd2ff" stroke="none" /><path d="M 117.81537515405839 111.11811171558189 l 17.88514167308028 11.161651183360991 a42.08223777982728,42.08223777982728 0 0,0 -0.3877223098661508,0.609563870073525 l -17.69090167158824 -11.467028728113187" fill="#ffeb16" stroke="none" /><line stroke="#e1ed5e" stroke-width="0.3" x1="143.1302829299769" x2="145.66735839644613" y1="173.24464959558577" y2="177.55315839532614" /><path d="M 143.63769802327073 174.10635135553383 a86.0,86.0 0 0,1 -40.68552437913181,11.842963189579606" fill="none" id="id18" stroke="none" /><text fill="#e1ed5e" style="font-size:6.75px; font-family:Arial;" text-anchor="middle"><textPath startOffset="21.407464694133747" xlink:href="#id18">June</textPath></text><path d="M 106.0420521117495 120.11202640906438 l 11.672828700363354 38.855050361724786 a61.570554204745534,61.570554204745534 0 0,0 -1.0148586128613442,0.2954105514960338 l -11.004110075120403 -39.04970460752333" fill="#2fff30" stroke="none" /><path d="M 103.2317021107853 120.74984581791261 l 3.035426789389032 19.489617456133246 a40.72457868701267,40.72457868701267 0 0,0 -0.6916873715410354,0.10165422405373392 l -2.7004143122403113 -19.538852753485862" fill="#ffd914" stroke="none" /><line stroke="#e1ed5e" stroke-width="0.3" x1="101.45913802915013" x2="101.54496967792366" y1="184.9874750549273" y2="189.98673829345242" /><path d="M 101.47630435890484 185.9873277026323 a86.0,86.0 0 0,1 -42.54439059252881,-10.42667462771756" fill="none" id="id19" stroke="none" /><text fill="#e1ed5e" style="font-size:6.75px; font-family:Arial;" text-anchor="middle"><textPath startOffset="22.145653131862474" xlink:href="#id19">July</textPath></text><path d="M 93.61358852112213 120.00534299687104 l -11.558326975648594 36.20629462767802 a59.00645594030351,59.00645594030351 0 0,0 -0.9623033091211517,-0.31632821148055146 l 12.17815302241749 -36.00254549479544" fill="#4aff2c" stroke="none" /><path d="M 93.27111125876986 119.89276391827306 l -8.644392341059978 25.555609948485664 a47.97804141863,47.97804141863 0 0,0 -0.7779164843632566,-0.27059973466245835 l 9.081814597468256 -25.403451781254613" fill="#c8ff1d" stroke="none" /><line stroke="#e1ed5e" stroke-width="0.3" x1="58.13341422392154" x2="55.67067388415222" y1="173.97424548756322" y2="178.32567169271397" /><path d="M 57.64086615596768 174.84453072859336 a86.0,86.0 0 0,1 -31.369924170532247,-30.572349798747897" fill="none" id="id20" stroke="none" /><text fill="#e1ed5e" style="font-size:6.75px; font-family:Arial;" text-anchor="middle"><textPath startOffset="22.145653131862474" xlink:href="#id20">August</textPath></text><line stroke="#e1ed5e" stroke-width="0.3" x1="26.387840678322732" x2="22.057713659400548" y1="142.50000000000003" y2="145.00000000000006" /><path d="M 25.521815274538298 143.00000000000003 a86.0,86.0 0 0,1 -11.493303480769221,-40.785679425670985" fill="none" id="id21" stroke="none" /><text fill="#e1ed5e" style="font-size:6.75px; font-family:Arial;" text-anchor="middle"><textPath startOffset="21.40746469413373" xlink:href="#id21">September</textPath></text><path d="M 80.9802524753101 108.90220220490708 l -13.063435737136604 6.114347536518914 a35.42354322126268,35.42354322126268 0 0,0 -0.2530515139556082,-0.5529632265201943 l 13.166471715947269 -5.889195327784031" fill="#ff910d" stroke="none" /><path d="M 79.48165901384964 104.47187691870673 l -5.5303231498783525 1.2053081905415055 a26.660145049048378,26.660145049048378 0 0,0 -0.09361810122244052,-0.44799650448352013 l 5.55019896192516 -1.1101952347725763" fill="#ff0f01" stroke="none" /><path d="M 79.01933749520258 100.90099992219065 l -49.594643337931196 2.1298073775473685 a70.64035381906598,70.64035381906598 0 0,0 -0.04162840424592076,-1.2119655690468343 l 49.62389642917396 -1.2781355439364144" fill="#3bff9f" stroke="none" /><path d="M 79.00696218219943 100.54070618675478 l -4.683246031981447 0.12062380516648802 a25.684799195103544,25.684799195103544 0 0,0 -0.00756914936635362,-0.4408650039328892 l 4.684626612946467 -0.04021188526454643" fill="#ff0000" stroke="none" /><line stroke="#e1ed5e" stroke-width="0.3" x1="15.003131293944662" x2="10.003315487706104" y1="100.72959589197737" y2="100.7725132973878" /><path d="M 14.003168132696942 100.73817937305945 a86.0,86.0 0 0,1 10.791469493833604,-42.45332614584628" fill="none" id="id22" stroke="none" /><text fill="#e1ed5e" style="font-size:6.75px; font-family:Arial;" text-anchor="middle"><textPath startOffset="22.145653131862435" xlink:href="#id22">October</textPath></text><line stroke="#e1ed5e" stroke-width="0.3" x1="26.387840678322718" x2="22.05771365940052" y1="57.49999999999999" y2="54.99999999999999" /><path d="M 25.521815274538284 56.99999999999999 a86.0,86.0 0 0,1 29.574782752854787,-30.34633250058573" fill="none" id="id23" stroke="none" /><text fill="#e1ed5e" style="font-size:6.75px; font-family:Arial;" text-anchor="middle"><textPath startOffset="21.40746469413373" xlink:href="#id23">November</textPath></text><line stroke="#e1ed5e" stroke-width="0.3" x1="56.869717070023135" x2="54.33264160355391" y1="26.7553504044142" y2="22.446841604673864" /><path d="M 56.362301976729285 25.89364864446614 a86.0,86.0 0 0,1 42.16139366436587,-11.88097634709845" fill="none" id="id24" stroke="none" /><text fill="#e1ed5e" style="font-size:6.75px; font-family:Arial;" text-anchor="middle"><textPath startOffset="22.145653131862474" xlink:href="#id24">December</textPath></text></svg>