<?xml version="1.0" encoding="utf-8" ?>
<svg baseProfile="full" height="200mm" version="1.1" viewBox="0,0,200,200" width="200mm" xmlns="http://www.w3.org/2000/svg" xmlns:ev="http://www.w3.org/2001/xml-events" xmlns:xlink="http://www.w3.org/1999/xlink"><defs /><rect fill="#1a1a1a" height="200" width="200" x="0" y="0" /><text alignment-baseline="middle" fill="#e1ed5e" style="dominant-baseline: central; font-size:9.0px; font-family:Arial;" text-anchor="middle" x="100.0" y="100.0">2023</text><line stroke="#e1ed5e" stroke-width="0.3" x1="100.0" x2="100.0" y1="15.0" y2="10.0" /><path d="M 100.0 14.0 a86.0,86.0 0 0,1 42.46469731375804,11.215312516191453" fill="none" id="id1" stroke="none" /><text fill="#e1ed5e" style="font-size:6.75px; font-family:Arial;" text-anchor="middle"><textPath startOffset="22.20632615414155" xlink:href="#id1">January</textPath></text><line stroke="#e1ed5e" stroke-width="0.3" x1="143.23703022742887" x2="145.7803849466894" y1="26.81831364943548" y2="22.513508569990506" /><path d="M 143.74570117128098 25.957352633546492 a86.0,86.0 0 0,1 28.547481713284135,27.462654790039103" fill="none" id="id2" stroke="none" /><text fill="#e1ed5e" style="font-size:6.75px; font-family:Arial;" text-anchor="middle"><textPath startOffset="19.985693538727396" xlink:href="#id2">February</textPath></text><line stroke="#e1ed5e" stroke-width="0.3" x1="172.23445277983987" x2="176.4835382374775" y1="55.19839476539836" y2="52.563006222186495" /><path d="M 173.08426987136738 54.67131705675599 a86.0,86.0 0 0,1 12.851231095245387,41.99856678651699" fill="none" id="id3" stroke="none" /><text fill="#e1ed5e" style="font-size:6.75px; font-family:Arial;" text-anchor="middle"><textPath startOffset="22.20632615414155" xlink:href="#id3">March</textPath></text><line stroke="#e1ed5e" stroke-width="0.3" x1="184.98032266829074" x2="189.97916517819016" y1="98.17113171792111" y2="98.06355123074" /><path d="M 185.9800911702706 98.14961562048488 a86.0,86.0 0 0,1 -9.607161424134198,41.387399972396054" fill="none" id="id4" stroke="none" /><text fill="#e1ed5e" style="font-size:6.75px; font-family:Arial;" text-anchor="middle"><textPath startOffset="21.466115282336823" xlink:href="#id4">April</textPath></text><line stroke="#e1ed5e" stroke-width="0.3" x1="174.80103733775053" x2="179.2010983576182" y1="140.37084112569926" y2="142.7455964860345" /><path d="M 175.68104954172406 140.8457921977663 a86.0,86.0 0 0,1 -30.038265399797805,32.042727171017184" fill="none" id="id5" stroke="none" /><text fill="#e1ed5e" style="font-size:6.75px; font-family:Arial;" text-anchor="middle"><textPath startOffset="22.206326154141568" xlink:href="#id5">May</textPath></text><line stroke="#e1ed5e" stroke-width="0.3" x1="143.8653032363475" x2="146.44561519142675" y1="172.8068346515853" y2="177.08958963109032" /><path d="M 144.38136562736335 173.6633856474863 a86.0,86.0 0 0,1 -40.68145358897372,12.25698825130547" fill="none" id="id6" stroke="none" /><text fill="#e1ed5e" style="font-size:6.75px; font-family:Arial;" text-anchor="middle"><textPath startOffset="21.466115282336833" xlink:href="#id6">June</textPath></text><line stroke="#e1ed5e" stroke-width="0.3" x1="102.19456741930631" x2="102.32365962044197" y1="184.97166512339345" y2="189.96999836594603" /><path d="M 102.22038585953345 185.97133177190398 a86.0,86.0 0 0,1 -42.740103519485714,-10.115201625700543" fill="none" id="id7" stroke="none" /><text fill="#e1ed5e" style="font-size:6.75px; font-family:Arial;" text-anchor="middle"><textPath startOffset="22.20632615414155" xlink:href="#id7">July</textPath></text><path d="M 92.7421414339146 119.70592522655815 l -6.2872790192519314 17.070689529668165 a39.19171015831793,39.19171015831793 0 0,0 -0.6310421097075722,-0.23860612976450413 l 6.5801913497197875 -16.959935149797026" fill="#ffbe11" stroke="none" /><line stroke="#e1ed5e" stroke-width="0.3" x1="58.666819895761336" x2="56.23545636021788" y1="174.27360380694188" y2="178.64263932499728" /><path d="M 58.180547188652646 175.14741091055294 a86.0,86.0 0 0,1 -31.652253787137756,-30.449443065178592" fill="none" id="id8" stroke="none" /><text fill="#e1ed5e" style="font-size:6.75px; font-family:Arial;" text-anchor="middle"><textPath startOffset="22.20632615414155" xlink:href="#id8">August</textPath></text><path d="M 88.24862548938628 117.40417183066458 l -19.458742636083013 28.819037308460455 a55.77325950157319,55.77325950157319 0 0,0 -0.7910324459373593,-0.5440793293346503 l 19.95193196664326 -28.479817189760706" fill="#70ff27" stroke="none" /><line stroke="#e1ed5e" stroke-width="0.3" x1="26.63291911575756" x2="22.317208475507996" y1="142.92168965132927" y2="145.44649492493687" /><path d="M 25.769776987707644 143.4266507060508 a86.0,86.0 0 0,1 -11.730757126820373,-40.83630448921669" fill="none" id="id9" stroke="none" /><text fill="#e1ed5e" style="font-size:6.75px; font-family:Arial;" text-anchor="middle"><textPath startOffset="21.46611528233685" xlink:href="#id9">September</textPath></text><path d="M 79.0235259727143 100.99374915477108 l -42.118602799393095 1.9953461138221444 a63.16584053338661,63.16584053338661 0 0,0 -0.04210414495850368,-1.086520895816418 l 42.1467090772028 -1.2700479709917296" fill="#31ff41" stroke="none" /><line stroke="#e1ed5e" stroke-width="0.3" x1="15.007084014347285" x2="10.007500721073583" y1="101.09737516637583" y2="101.16192664675087" /><path d="M 14.007167355692545 101.11028546245083 a86.0,86.0 0 0,1 10.666146001902534,-42.60595125391555" fill="none" id="id10" stroke="none" /><text fill="#e1ed5e" style="font-size:6.75px; font-family:Arial;" text-anchor="middle"><textPath startOffset="22.20632615414155" xlink:href="#id10">October</textPath></text><line stroke="#e1ed5e" stroke-width="0.3" x1="26.266209847984243" x2="21.928928074336255" y1="57.711370442889674" y2="55.22380399835377" /><path d="M 25.398753493254645 57.213857153982495 a86.0,86.0 0 0,1 29.58750427330803,-30.492523968695096" fill="none" id="id11" stroke="none" /><text fill="#e1ed5e" style="font-size:6.75px; font-family:Arial;" text-anchor="middle"><textPath startOffset="21.46611528233685" xlink:href="#id11">November</textPath></text><path d="M 82.34701348167596 88.62581576622439 l -23.40851209270938 -15.082588371359519 a48.84677558307946,48.84677558307946 0 0,0 0.4614935536952168,-0.702886343530637 l 23.145421903656242 15.483292778867822" fill="#c2ff1e" stroke="none" /><line stroke="#e1ed5e" stroke-width="0.3" x1="56.762969772571076" x2="54.21961505331055" y1="26.818313649435495" y2="22.513508569990535" /><path d="M 56.25429882871897 25.957352633546506 a86.0,86.0 0 0,1 42.265352541879196,-11.944610805530505" fill="none" id="id12" stroke="none" /><text fill="#e1ed5e" style="font-size:6.75px; font-family:Arial;" text-anchor="middle"><textPath startOffset="22.20632615414155" xlink:href="#id12">December</textPath></text><path d="M 92.57280143429618 80.3572730644239 l -4.51030385256498 -11.928409640414058 a33.75263884033362,33.75263884033362 0 0,0 0.5452138879264956,-0.20080687617260395 l 4.304307638865915 12.004279784392985" fill="#ff710a" stroke="none" /><path d="M 92.91201910852362 80.23233633223022 l -5.5928427756953205 -15.597874293031945 a37.5702616990461,37.5702616990461 0 0,0 0.6106384014255393,-0.21303974805805775 l 5.323522370206496 15.691834894262213" fill="#ffa70f" stroke="none" /><path d="M 93.94186890950719 79.89281104454417 l -5.931037563488855 -19.68536025543079 a41.5594410178295,41.5594410178295 0 0,0 0.6867396466253965,-0.20047813449099525 l 5.591307699140037 19.784536718840485" fill="#ffde14" stroke="none" /><path d="M 94.98787191387505 79.60689891045804 l -3.4098078346493184 -13.873658987369746 a35.28653922988563,35.28653922988563 0 0,0 0.5910937461971939,-0.13989279225188103 l 3.1704904014895905 13.930297691762497" fill="#ff870c" stroke="none" /><path d="M 95.33964822691252 79.52364482259891 l -1.1830707844479271 -5.198100650310615 a26.33103243769665,26.33103243769665 0 0,0 0.44280931837724874,-0.09678096597095373 l 1.0934187419171573 5.217695114377437" fill="#ff0000" stroke="none" /><path d="M 96.75951476605007 79.25152402106235 l -7.890823492699056 -50.5240881757505 a72.1365679468611,72.1365679468611 0 0,0 1.2284892544387616,-0.18104738211888702 l 7.019965257831646 50.65243004203035" fill="#3dffae" stroke="none" /><path d="M 97.83486435360386 79.11191278185805 l -1.588962806249452 -15.329475425046624 a36.411606652349796,36.411606652349796 0 0,0 0.6239820150692709,-0.05925461098435638 l 1.324855664089945 15.354555580546162" fill="#ff970d" stroke="none" /><path d="M 98.55514903715128 79.0497635885617 l -0.9767681029109943 -14.163068165031278 a35.196710033461514,35.196710033461514 0 0,0 0.6047766064790542,-0.036481776476086816 l 0.732829447592317 14.177783210887672" fill="#ff850c" stroke="none" /><path d="M 99.27714615592234 79.0124445844662 l -2.1685615322329856 -62.9626662466014 a84.0,84.0 0 0,0 1.445493459220484,-0.03733283143056143 l 1.0844414378176228 62.990665870174325" fill="#4dd2ff" stroke="none" /><path d="M 99.63851952072746 79.00311137660856 l -0.5449612041884185 -31.654516258916306 a52.65920691205115,52.65920691205115 0 0,0 0.9064416834609464,-0.007802029743400831 l 7.75426928167744e-15 31.659206912051147" fill="#94ff23" stroke="none" /></svg>